# xmcd
#
# Track frame offsets:
#	150
#	16140
#	32677
#	51265
#	66555
#	84751
#	99150
#
# Disc length: 1544 seconds
#
# Revision: 0
# Processed by: cddbd v1.5.2PL0 Copyright (c) Steve Scherf et al.
# Submitted via: audiograbber 1.83.01
#
DISCID=4b060607
DTITLE=Megan and Liz - Simple Life (EP)
DYEAR=2014
DGENRE=Country
TTITLE0=Simple Life
TTITLE1=A Better Me
TTITLE2=Karma's Coming Back for Me
TTITLE3=New at This
TTITLE4=Night of Our Lives
TTITLE5=Switch Hearts
TTITLE6=Grave
EXTD=
EXTT0=
EXTT1=
EXTT2=
EXTT3=
EXTT4=
EXTT5=
EXTT6=
PLAYORDER=
